<?xml version="1.0" standalone="no"?>
<!DOCTYPE svg PUBLIC "-//W3C//DTD SVG 20010904//EN"
 "http://www.w3.org/TR/2001/REC-SVG-20010904/DTD/svg10.dtd">
<svg version="1.0" xmlns="http://www.w3.org/2000/svg"
 width="1200.000000pt" height="1200.000000pt" viewBox="0 0 1200.000000 1200.000000"
 preserveAspectRatio="xMidYMid meet">

<g transform="translate(0.000000,1200.000000) scale(0.100000,-0.100000)"
fill="#000000" stroke="none">
<path d="M5590 10284 c-19 -2 -105 -9 -190 -14 -165 -12 -475 -51 -600 -75
-41 -8 -133 -22 -204 -30 -126 -16 -252 -36 -331 -55 -22 -5 -89 -20 -150 -34
-436 -100 -565 -135 -715 -190 -52 -20 -100 -36 -106 -36 -23 0 -345 -120
-411 -153 -37 -19 -86 -40 -108 -47 -22 -6 -69 -25 -105 -40 -36 -15 -99 -40
-140 -55 -41 -16 -87 -36 -102 -47 -14 -10 -30 -18 -34 -18 -22 0 -375 -217
-388 -239 -3 -5 -37 -18 -75 -31 -58 -18 -76 -20 -102 -11 -84 29 -170 6 -252
-67 -23 -21 -64 -53 -92 -72 -103 -70 -255 -203 -255 -222 0 -37 -30 -75 -124
-157 -53 -46 -101 -92 -106 -102 -12 -21 0 -34 60 -72 59 -38 49 -89 -23 -118
-35 -14 -107 -80 -107 -97 0 -6 -20 -25 -44 -41 -49 -34 -339 -319 -402 -396
-22 -28 -47 -61 -55 -75 -8 -14 -26 -39 -41 -57 -14 -17 -47 -70 -73 -117 -25
-47 -57 -94 -69 -104 -28 -22 -49 -61 -111 -212 -58 -140 -75 -200 -75 -263 0
-53 8 -73 46 -114 14 -15 39 -57 56 -93 25 -55 29 -73 25 -120 -5 -61 -44
-155 -85 -209 -23 -31 -26 -44 -26 -106 2 -114 79 -319 158 -419 41 -50 74
-66 138 -66 67 0 115 14 145 41 19 19 27 21 48 11 13 -6 36 -30 51 -54 15 -23
32 -48 38 -54 6 -7 20 -25 31 -39 28 -38 151 -162 177 -179 34 -22 108 -37
108 -22 0 7 -4 16 -9 22 -11 10 -14 36 -11 79 1 18 4 24 7 15 4 -8 28 -44 55
-79 26 -35 48 -69 48 -76 0 -21 151 -175 193 -197 31 -15 52 -19 91 -15 37 3
70 -1 121 -19 53 -17 91 -23 153 -22 59 1 87 -3 99 -14 39 -33 100 -52 179
-56 74 -4 94 -1 200 33 153 49 203 74 248 126 40 47 48 97 22 147 -7 15 -17
43 -21 62 -4 19 -23 67 -42 105 -36 74 -73 192 -73 235 0 15 -13 62 -29 106
-33 91 -52 167 -75 309 -9 55 -28 134 -42 175 -13 41 -24 84 -24 95 0 11 -10
40 -21 65 -28 61 -56 232 -58 354 -1 84 2 108 19 140 11 22 23 56 26 75 4 20
11 44 16 55 7 13 6 21 -2 26 -9 5 -5 18 13 46 13 22 27 49 31 61 4 12 20 26
36 32 17 5 30 15 30 21 0 6 4 8 10 5 6 -3 7 1 4 9 -3 9 4 41 17 71 28 69 22
83 -47 103 -27 8 -52 19 -56 26 -4 6 -8 8 -8 4 0 -4 -19 0 -42 8 -24 8 -51 13
-61 10 -9 -2 -15 0 -11 5 3 5 -4 9 -15 9 -30 0 -59 38 -67 86 -8 56 -50 111
-89 119 -16 3 -39 10 -50 14 -11 5 -49 13 -85 19 -64 10 -65 10 -87 -16 -30
-36 -29 -57 7 -127 17 -32 30 -64 30 -69 0 -26 -48 -39 -161 -44 -142 -6 -201
2 -236 32 -25 22 -27 29 -32 144 l-7 120 -34 36 c-48 48 -52 72 -21 121 31 48
43 59 96 86 39 21 83 63 190 185 148 167 406 353 687 494 54 26 123 64 155 83
38 23 82 39 128 47 39 7 83 19 98 27 16 8 52 18 81 23 48 8 214 81 418 185 37
19 87 38 110 41 24 4 71 23 106 41 35 19 98 46 140 59 42 14 95 34 117 44 22
10 63 25 92 33 29 9 67 22 85 30 62 28 247 81 378 108 25 6 95 21 155 34 61
13 135 29 165 35 118 23 511 78 635 89 72 7 171 16 220 21 50 5 135 12 190 15
856 46 1009 50 1270 36 270 -15 575 -39 645 -51 30 -5 100 -14 155 -20 165
-16 319 -45 435 -82 36 -11 81 -24 100 -28 76 -17 153 -41 194 -60 24 -11 63
-22 87 -26 24 -3 73 -16 109 -29 89 -31 376 -122 425 -134 22 -5 78 -15 125
-22 47 -7 98 -20 115 -29 16 -9 48 -23 70 -30 22 -7 45 -17 51 -21 6 -5 38
-14 70 -20 33 -5 104 -28 159 -51 55 -22 127 -51 160 -65 33 -13 83 -39 110
-57 28 -19 77 -47 110 -64 33 -16 86 -52 117 -79 112 -94 152 -122 209 -143
51 -19 62 -28 91 -78 36 -60 85 -112 106 -112 25 0 110 -49 131 -76 13 -16 21
-41 21 -64 0 -40 -2 -41 -84 -66 -38 -12 -46 -41 -37 -145 6 -76 5 -85 -14
-108 -20 -22 -32 -25 -126 -32 -57 -4 -140 -15 -184 -24 -44 -8 -111 -20 -150
-24 -164 -21 -276 -68 -260 -110 4 -9 8 -25 9 -37 2 -11 6 -26 10 -32 3 -6 17
-46 30 -89 13 -43 34 -103 46 -133 12 -30 29 -75 39 -100 9 -25 31 -72 49
-105 18 -33 45 -93 59 -134 13 -41 33 -96 44 -123 10 -27 22 -81 25 -121 4
-39 13 -89 20 -111 8 -21 11 -42 9 -47 -7 -10 30 -177 50 -230 20 -52 21 -209
2 -329 -9 -58 -17 -139 -17 -181 0 -42 -5 -101 -11 -130 -6 -30 -14 -71 -19
-92 -10 -48 15 -155 43 -185 25 -27 68 -39 167 -45 41 -3 126 -19 188 -36 159
-44 205 -41 266 15 39 36 41 36 121 39 54 2 118 30 149 64 11 12 31 27 45 34
23 11 29 11 45 -5 27 -25 71 -23 91 5 115 162 216 349 220 407 2 19 -5 32 -26
45 -15 11 -26 22 -24 26 3 3 -1 20 -7 37 -14 37 -5 52 36 56 15 2 44 19 64 38
62 59 95 71 171 63 63 -6 68 -5 114 26 26 17 54 43 61 58 25 49 46 157 46 237
0 149 -33 364 -56 364 -7 0 -58 -22 -114 -50 l-102 -49 -36 19 c-20 11 -37 18
-39 16 -2 -2 6 -22 18 -45 18 -34 20 -51 15 -93 -6 -43 -36 -113 -36 -83 0 5
-5 4 -12 -3 -13 -13 -28 1 -68 67 -14 22 -30 41 -37 41 -6 0 -28 -23 -48 -51
l-37 -51 -21 33 c-36 58 -47 81 -47 100 0 10 -13 31 -30 45 -16 15 -32 35 -35
46 -4 10 -31 44 -61 75 -61 64 -74 98 -77 203 -1 53 2 73 15 86 15 16 19 16
48 -2 18 -11 43 -39 57 -64 33 -60 51 -79 93 -98 19 -9 38 -17 41 -19 11 -6
20 29 10 41 -20 24 -52 134 -58 198 -5 56 -2 73 17 112 25 52 82 97 148 117
47 14 56 22 66 60 8 37 -34 110 -118 203 -82 90 -117 103 -168 66 -17 -13 -50
-25 -74 -28 -37 -4 -47 -1 -72 24 -16 17 -36 54 -47 89 -29 95 -103 225 -127
225 -13 0 -118 80 -145 110 -12 14 -30 41 -39 60 -25 53 -53 80 -112 106 -73
32 -152 99 -152 129 0 14 18 40 46 68 58 57 52 87 -26 129 -47 25 -165 106
-187 127 -13 12 -80 56 -150 98 -71 42 -141 85 -156 95 -34 24 -118 48 -169
48 -26 0 -38 5 -38 14 0 26 -30 39 -107 46 -65 7 -94 16 -187 63 -321 159
-408 198 -476 211 -37 8 -132 41 -162 57 -28 14 -324 99 -423 120 -49 11 -153
35 -230 54 -183 45 -586 114 -790 135 -44 5 -123 14 -175 19 -102 12 -310 25
-640 41 -188 9 -698 11 -780 4z m-3615 -1188 c25 -17 26 -19 10 -36 -33 -37
-175 -35 -175 3 0 7 7 23 16 36 15 21 23 23 69 19 29 -3 65 -12 80 -22z m8608
-1554 c30 -5 43 -28 73 -130 18 -66 15 -85 -18 -106 -41 -25 -138 114 -138
199 0 36 18 58 40 49 8 -4 27 -9 43 -12z"/>
<path d="M6365 8635 c-24 -25 -29 -37 -27 -71 2 -54 -13 -68 -59 -52 -19 6
-37 15 -40 20 -9 13 -58 -12 -64 -34 -4 -10 -10 -18 -14 -18 -10 0 -3 -137 8
-165 5 -11 14 -40 22 -65 18 -57 47 -65 78 -21 40 55 125 51 156 -9 14 -27 14
-33 0 -61 -23 -43 -12 -89 21 -89 18 0 27 9 39 36 8 20 15 49 15 65 0 22 5 29
19 29 11 0 26 8 33 18 7 9 27 22 43 27 22 8 30 17 30 35 0 18 6 25 19 25 14 0
20 9 22 32 2 18 -1 35 -6 38 -6 3 -10 15 -10 27 0 17 -2 18 -15 8 -21 -17 -32
-4 -17 20 16 27 8 132 -14 165 -14 21 -23 26 -44 21 -15 -3 -36 1 -46 8 -11 8
-42 20 -69 28 l-50 14 -30 -31z m69 -141 c9 -3 16 -12 16 -20 0 -8 7 -14 15
-14 8 0 15 -7 15 -16 0 -17 -13 -12 -46 18 -12 10 -27 18 -34 16 -7 -2 -15 3
-17 10 -5 13 24 16 51 6z m114 -86 c16 -16 16 -61 0 -55 -7 2 -13 14 -12 26 0
11 -3 21 -8 21 -4 0 -8 5 -8 10 0 14 13 13 28 -2z"/>
<path d="M7664 8533 c-12 -2 -32 -15 -44 -28 l-23 -24 22 -66 c11 -36 21 -74
21 -84 0 -10 8 -29 19 -42 20 -26 36 -95 24 -101 -4 -1 -19 -24 -32 -49 -27
-53 -20 -78 29 -104 60 -31 114 -13 169 56 37 45 60 98 61 139 0 14 7 52 15
85 25 94 5 119 -153 198 -53 26 -65 29 -108 20z"/>
<path d="M5603 8444 c-3 -8 -1 -20 6 -27 6 -6 11 -23 11 -38 0 -38 46 -62 77
-42 18 12 20 19 12 46 -16 55 -91 99 -106 61z"/>
<path d="M4602 8432 c-23 -2 -32 -8 -28 -17 5 -13 -22 -30 -32 -20 -3 3 0 5 6
5 7 0 12 5 12 12 0 6 -9 3 -20 -7 -17 -15 -22 -16 -36 -4 -19 16 -42 20 -114
22 -51 2 -55 0 -65 -27 -9 -25 -6 -31 19 -51 15 -12 46 -28 67 -35 21 -7 46
-20 56 -29 25 -22 73 -42 84 -36 5 4 9 2 9 -4 0 -6 12 -14 28 -17 15 -4 45
-16 67 -27 22 -11 49 -25 60 -31 11 -5 33 -16 48 -24 15 -8 43 -29 61 -48 23
-24 42 -34 64 -34 28 0 30 3 27 28 -5 41 -24 84 -34 78 -5 -3 -11 3 -14 14 -3
12 -14 20 -26 20 -13 0 -25 9 -31 24 -5 13 -19 31 -32 40 -19 14 -57 96 -60
133 -2 16 -76 39 -116 35z"/>
<path d="M9578 8384 c-16 -8 -28 -21 -28 -29 0 -7 -7 -20 -15 -29 -15 -14 -10
-50 5 -41 5 3 11 1 15 -5 10 -16 40 -12 58 8 13 14 16 29 11 65 -7 52 -8 52
-46 31z"/>
<path d="M7001 8184 c-19 -24 -19 -28 -6 -61 8 -20 15 -37 15 -39 0 -2 11 -4
24 -4 23 0 41 -23 31 -41 -3 -4 -19 -6 -34 -3 -26 6 -30 3 -36 -26 -8 -34 1
-129 15 -166 6 -15 21 -25 44 -29 45 -9 126 35 126 69 0 44 22 74 60 79 82 11
153 96 127 151 -19 39 -114 59 -151 31 -11 -8 -39 -15 -61 -15 -44 0 -73 18
-94 58 -15 29 -35 28 -60 -4z"/>
<path d="M2349 8096 c13 -14 20 -29 16 -35 -3 -6 3 -24 14 -40 12 -16 21 -34
21 -41 0 -7 7 -10 16 -6 34 13 60 -5 81 -55 16 -36 27 -49 42 -49 12 0 21 -5
21 -12 0 -9 3 -8 13 1 10 11 10 14 0 18 -18 7 -16 30 3 37 9 3 26 6 39 6 29 0
45 26 41 64 -4 36 -99 87 -170 90 -38 1 -52 7 -64 24 -11 17 -24 22 -55 22
l-40 0 22 -24z"/>
<path d="M8224 7861 c-10 -2 -24 -7 -29 -11 -6 -5 -57 -13 -115 -19 -58 -6
-134 -18 -170 -26 -36 -7 -136 -16 -222 -19 -89 -3 -163 -10 -170 -16 -7 -5
-26 -20 -41 -31 -64 -48 -55 -102 25 -152 124 -79 315 -116 419 -82 30 10 60
22 67 28 18 14 -4 37 -37 37 -37 0 -131 46 -131 64 0 24 31 35 129 46 207 23
895 52 961 40 20 -4 26 -1 28 17 2 16 -6 28 -30 43 -18 11 -41 20 -50 20 -9 0
-37 9 -63 20 -25 11 -57 22 -70 24 -14 3 -29 8 -35 11 -11 7 -432 13 -466 6z"/>
<path d="M5267 7671 c-21 -10 -53 -33 -71 -50 -24 -23 -35 -28 -39 -19 -2 8
-30 22 -61 31 -44 14 -76 17 -153 12 -54 -3 -240 -10 -413 -15 -173 -6 -351
-14 -395 -19 -91 -11 -227 -51 -232 -68 -3 -7 10 -19 27 -28 28 -15 87 -16
548 -14 285 2 526 6 537 10 11 3 38 12 60 19 22 7 42 16 45 19 3 3 15 12 28
19 26 14 70 0 111 -36 31 -28 22 -47 -34 -73 -25 -12 -45 -25 -45 -29 0 -11
-65 -48 -98 -57 -24 -6 -24 -7 -7 -14 17 -7 16 -8 -7 -8 -14 -1 -28 5 -31 12
-4 12 -15 9 -79 -24 -10 -5 -27 -9 -38 -9 -11 0 -20 -4 -20 -10 0 -5 8 -10 18
-10 9 0 28 -3 42 -6 20 -4 22 -3 10 5 -8 6 -13 11 -10 12 57 9 219 20 340 22
187 3 274 18 343 56 121 67 98 143 -58 195 -110 37 -173 56 -185 56 -7 0 -23
9 -37 20 -31 24 -46 24 -96 1z"/>
<path d="M3151 7571 c-8 -5 -11 -16 -6 -30 5 -18 14 -21 66 -21 64 0 99 12 99
34 0 8 -10 16 -22 20 -34 9 -121 7 -137 -3z"/>
<path d="M8840 7519 c-25 -4 -82 -8 -128 -7 -86 1 -110 -5 -70 -17 13 -4 30
-13 38 -20 8 -7 78 -20 155 -29 211 -25 205 -24 245 -65 39 -40 113 -81 147
-81 40 0 44 -22 12 -74 -28 -44 -29 -49 -14 -65 8 -10 33 -23 55 -30 24 -7 49
-25 65 -45 32 -42 78 -50 150 -29 79 24 103 62 67 108 -11 13 -18 37 -17 54 2
31 -9 40 -91 72 -24 10 -30 17 -26 34 2 13 15 29 28 36 16 8 24 20 22 33 -3
18 -12 22 -73 27 -38 4 -88 10 -110 14 -27 4 -49 2 -66 -7 -34 -18 -113 -12
-105 8 3 8 0 13 -7 11 -6 -1 -13 8 -15 20 -4 26 -38 38 -130 48 -35 3 -69 8
-75 9 -7 2 -32 0 -57 -5z"/>
<path d="M2830 7481 c-24 -4 -39 -14 -50 -34 -14 -27 -14 -29 12 -52 22 -19
35 -22 70 -18 48 6 128 37 128 50 -1 41 -78 67 -160 54z"/>
<path d="M11130 7450 c0 -5 5 -10 11 -10 5 0 7 5 4 10 -3 6 -8 10 -11 10 -2 0
-4 -4 -4 -10z"/>
<path d="M6718 7406 c-37 -6 -75 -19 -86 -29 -10 -9 -22 -17 -26 -17 -4 0 -19
-9 -34 -19 -32 -23 -113 -40 -195 -40 -44 -1 -67 -7 -89 -23 -31 -21 -66 -25
-171 -17 -33 3 -42 -2 -64 -29 -13 -18 -38 -39 -54 -47 -40 -21 -49 -61 -18
-89 53 -47 106 -83 148 -100 62 -24 96 -49 172 -127 36 -38 76 -74 90 -82 64
-35 87 -52 105 -78 11 -16 36 -39 55 -51 39 -27 69 -80 62 -108 -6 -24 -31
-26 -39 -5 -7 17 -35 20 -50 6 -5 -5 -46 -11 -92 -14 -90 -5 -111 -18 -112
-68 0 -14 -9 -43 -20 -65 -19 -38 -19 -39 0 -55 11 -10 48 -19 91 -23 64 -7
78 -5 121 16 40 19 48 27 44 46 -3 18 0 23 13 19 9 -2 22 2 29 10 16 17 42 17
42 0 0 -7 10 -17 23 -22 15 -7 23 -20 25 -41 3 -33 -13 -44 -64 -48 -12 0 -30
-8 -40 -17 -11 -9 -36 -24 -56 -34 -21 -9 -38 -23 -38 -30 0 -27 -134 -85
-196 -85 -2 0 -14 -12 -27 -26 -23 -25 -24 -29 -12 -73 7 -26 17 -56 23 -67
58 -108 54 -237 -6 -205 -10 6 -49 54 -85 108 -79 116 -85 124 -117 146 -33
23 -65 22 -186 -10 -82 -21 -112 -34 -137 -58 -18 -17 -43 -38 -57 -47 -14 -8
-26 -25 -27 -37 -1 -12 -9 -28 -18 -37 -15 -15 -20 -15 -72 1 -58 18 -160 16
-234 -5 -57 -17 -119 -11 -185 15 -58 23 -77 25 -232 27 -167 2 -170 1 -215
-25 -25 -15 -52 -33 -59 -40 -32 -30 -96 -76 -136 -96 -24 -12 -46 -30 -49
-39 -3 -9 -15 -29 -25 -44 -26 -37 -22 -63 12 -88 17 -12 30 -18 30 -14 0 4 6
1 13 -8 6 -9 34 -19 62 -23 43 -5 56 -13 91 -51 22 -24 45 -44 51 -44 5 0 19
-9 30 -19 18 -17 109 -64 226 -116 21 -9 41 -23 43 -30 3 -7 20 -19 37 -25 18
-7 46 -18 62 -25 17 -7 46 -16 65 -20 19 -4 54 -18 78 -31 23 -14 42 -23 42
-20 0 3 13 0 30 -5 18 -7 38 -26 51 -48 16 -30 30 -40 63 -49 73 -18 116 -38
131 -59 8 -11 31 -24 50 -27 20 -4 45 -18 56 -31 13 -14 37 -26 62 -29 56 -9
89 -38 92 -79 2 -38 13 -67 27 -67 5 0 28 -13 51 -29 80 -54 248 -166 265
-176 10 -5 56 -36 102 -67 62 -41 104 -61 155 -73 39 -9 79 -23 90 -29 11 -7
63 -28 115 -46 l95 -34 225 -1 225 0 137 56 c75 31 143 62 150 70 8 8 30 25
49 38 54 37 100 124 124 234 12 53 11 57 -6 57 -10 0 -21 -4 -24 -10 -3 -5
-19 -10 -35 -10 -16 0 -31 -4 -34 -9 -4 -5 -22 -3 -44 6 l-38 15 10 57 c11 59
31 91 81 130 27 21 36 22 100 16 64 -6 73 -4 90 15 24 26 32 124 13 159 -13
24 -97 59 -145 60 -26 1 -125 46 -117 54 3 3 -2 4 -13 1 -20 -5 -147 56 -149
71 -2 21 -23 61 -38 74 -9 8 -14 21 -12 30 2 9 7 33 11 54 4 28 11 37 26 37
11 0 23 -10 28 -22 13 -34 108 -116 141 -122 14 -3 86 -52 93 -63 4 -7 14 -13
21 -13 8 0 20 -7 27 -16 7 -9 38 -27 69 -41 74 -33 125 -27 160 18 14 18 46
58 73 88 26 30 64 80 84 110 20 31 54 76 75 101 21 25 64 74 95 110 30 36 74
85 97 110 24 25 52 61 64 81 12 20 38 44 57 54 20 9 46 32 58 52 23 35 23 38
7 86 -31 95 -90 127 -255 141 -33 3 -79 8 -102 12 -47 7 -142 -12 -149 -30 -3
-7 -38 -34 -79 -60 -47 -31 -78 -59 -86 -78 -12 -31 -43 -53 -59 -43 -15 10
-38 65 -61 150 -37 137 -35 135 -206 220 -160 79 -169 87 -143 136 8 14 21 19
50 19 21 0 40 4 42 10 7 20 122 13 198 -13 74 -25 75 -25 88 -5 9 13 21 18 34
15 11 -3 17 -3 14 0 -3 3 7 29 22 57 15 28 29 55 31 60 2 5 -23 6 -60 3 -46
-5 -77 -2 -108 8 -48 17 -69 13 -121 -21 -41 -28 -86 -30 -134 -6 -42 20 -52
42 -34 74 14 25 88 98 99 98 4 0 10 10 13 23 3 12 35 55 71 96 36 41 65 81 65
88 0 22 56 127 80 148 12 11 28 33 36 50 7 16 19 38 26 48 18 23 -8 71 -41 75
-14 2 -31 10 -38 18 -8 8 -23 14 -33 14 -10 0 -22 4 -25 10 -3 5 -22 17 -41
26 -33 16 -37 16 -77 -2 -53 -24 -197 -24 -279 0 -31 9 -73 16 -95 16 -21 0
-53 9 -70 20 -35 21 -133 40 -198 39 -22 -1 -70 -6 -107 -13z m-115 -2627 c30
-15 77 -60 77 -73 0 -6 14 -29 30 -50 l30 -40 -27 -18 c-34 -22 -50 -22 -99
-2 -71 30 -142 135 -114 169 10 12 31 20 68 24 7 0 23 -4 35 -10z"/>
<path d="M4844 7346 c-4 -10 -18 -22 -33 -27 -20 -8 -28 -7 -38 6 -6 10 -17
14 -23 10 -18 -11 -60 -13 -66 -3 -6 10 -46 4 -112 -18 -23 -8 -65 -14 -93
-14 -30 0 -66 -8 -92 -21 -23 -11 -73 -24 -112 -29 -133 -16 -187 -36 -250
-96 -46 -44 -63 -54 -91 -54 -62 0 -118 -20 -164 -59 l-44 -39 41 -20 c22 -12
71 -27 109 -34 63 -11 104 -34 104 -58 0 -5 -15 -9 -32 -9 -78 4 -243 -4 -257
-11 -25 -12 -104 -52 -126 -64 -11 -6 -23 -15 -26 -20 -4 -5 -11 -6 -17 -2
-13 8 -25 -26 -16 -47 6 -17 61 -42 115 -52 19 -3 90 1 159 9 68 9 153 16 188
16 55 0 71 5 113 32 60 38 63 61 14 108 -45 44 -46 60 -1 53 26 -4 43 1 72 21
21 14 44 26 51 26 7 0 23 21 36 46 20 42 28 49 87 70 36 14 106 36 155 50 97
28 165 60 165 80 0 21 28 35 84 41 46 5 56 9 56 24 0 14 7 19 28 19 39 0 64
42 39 67 -15 15 -17 15 -23 -1z"/>
<path d="M8040 7288 c-23 -25 -23 -27 -11 -47 8 -12 16 -11 55 5 68 28 74 64
11 64 -22 0 -41 -8 -55 -22z"/>
<path d="M2426 7185 c-9 -14 -21 -23 -26 -20 -6 3 -7 -1 -4 -9 3 -9 10 -16 15
-16 5 0 9 -4 9 -9 0 -5 -14 -8 -31 -7 -18 0 -34 -5 -36 -11 -8 -22 23 -25 65
-6 47 20 68 54 52 84 -14 25 -24 24 -44 -6z"/>
<path d="M5395 7136 c-17 -12 -17 -16 -5 -31 33 -40 100 -38 100 3 0 40 -56
56 -95 28z"/>
<path d="M8173 7080 c-44 -20 -65 -56 -42 -71 8 -5 49 -9 92 -9 64 0 80 3 97
20 63 63 -43 106 -147 60z"/>
<path d="M5583 7072 c-27 -4 -30 -17 -7 -26 26 -10 44 -7 44 8 0 19 -9 23 -37
18z"/>
<path d="M5339 6891 c-18 -15 -23 -28 -23 -60 2 -57 24 -73 88 -67 57 6 79 27
71 71 -11 64 -87 95 -136 56z"/>
<path d="M5055 6872 c-5 -4 -16 -15 -23 -24 -12 -15 -9 -19 18 -33 38 -20 70
-12 70 19 0 37 -37 59 -65 38z"/>
<path d="M5573 6830 c-18 -11 -33 -23 -33 -27 1 -18 51 -63 69 -63 38 0 67 70
39 98 -17 17 -38 15 -75 -8z"/>
<path d="M5243 6664 c-3 -8 1 -23 10 -31 14 -14 17 -14 32 1 9 9 14 23 11 31
-7 20 -45 19 -53 -1z"/>
<path d="M3600 6603 c-86 -16 -98 -22 -105 -59 -9 -48 21 -79 66 -69 18 4 36
2 44 -5 11 -9 24 -9 57 3 24 8 63 20 88 27 58 16 94 35 98 53 4 18 -18 27 -93
37 -33 4 -76 10 -95 13 -19 3 -46 3 -60 0z"/>
<path d="M2283 6590 l-23 -9 28 -30 c41 -45 73 -45 96 -1 13 28 13 31 -4 40
-23 12 -67 12 -97 0z"/>
<path d="M9568 6525 c-4 -4 -18 -9 -32 -10 -41 -5 -66 -16 -66 -29 0 -10 87
-60 140 -81 8 -3 26 -12 39 -20 21 -12 30 -12 60 1 37 15 61 39 61 59 0 6 -21
27 -47 45 -34 25 -60 35 -97 38 -28 2 -54 1 -58 -3z"/>
<path d="M5521 6479 c-17 -18 -31 -36 -31 -40 0 -16 44 -42 72 -42 47 0 111
78 80 97 -5 3 -27 8 -50 12 -37 6 -44 4 -71 -27z"/>
<path d="M6165 6488 c-44 -25 -41 -49 6 -43 39 5 76 40 53 49 -22 8 -36 7 -59
-6z"/>
<path d="M2329 6436 c-25 -12 -35 -50 -25 -92 12 -45 101 -23 119 29 5 12 -1
26 -16 41 -30 31 -49 37 -78 22z"/>
<path d="M6101 6352 c-48 -7 -81 -83 -48 -110 12 -10 82 -2 106 12 6 4 18 2
26 -4 11 -10 18 -5 35 22 27 44 25 56 -7 64 -16 3 -41 9 -58 13 -16 4 -41 5
-54 3z"/>
<path d="M9460 6310 c-19 -36 4 -70 49 -72 60 -3 84 1 93 14 11 17 10 20 -10
44 -12 14 -36 24 -69 29 -47 6 -53 5 -63 -15z"/>
<path d="M3038 6255 c-20 -14 -41 -32 -46 -40 -9 -18 -37 -36 -93 -61 -21 -9
-41 -24 -45 -34 -12 -26 -99 -116 -118 -123 -21 -8 -21 -84 -1 -111 9 -11 15
-41 15 -69 0 -54 7 -72 48 -116 24 -27 31 -29 70 -24 23 3 42 9 42 13 0 3 20
21 45 39 34 24 45 39 45 59 0 15 9 38 20 52 24 31 25 53 4 85 -19 28 -12 75
11 75 19 0 56 37 83 83 23 40 29 77 12 77 -18 0 -11 30 13 54 l23 23 -24 22
c-30 27 -58 26 -104 -4z"/>
<path d="M3235 5845 c-27 -14 -57 -25 -66 -25 -27 0 -67 -38 -109 -103 -22
-34 -40 -64 -40 -69 0 -15 52 -21 88 -10 21 6 66 16 102 22 36 6 75 18 88 26
12 8 22 13 23 12 12 -41 7 -58 -23 -79 -18 -13 -38 -30 -44 -38 -6 -8 -22 -15
-35 -16 -17 -1 -25 -10 -32 -36 -11 -43 -22 -55 -53 -63 -95 -24 -164 -135
-121 -193 11 -15 75 -17 111 -3 41 15 160 25 153 12 -5 -6 0 -8 13 -5 11 3 26
1 33 -5 6 -5 28 -15 48 -21 21 -7 41 -21 47 -35 8 -18 16 -22 37 -19 27 6 65
-19 65 -42 0 -6 10 -16 23 -22 40 -18 92 -35 112 -37 11 -2 29 -8 41 -14 40
-22 144 -15 144 9 0 15 54 10 80 -8 20 -15 46 -18 132 -18 60 0 108 3 108 8 0
4 6 7 14 7 14 0 29 26 22 38 -2 4 -7 45 -10 91 -5 63 -12 92 -28 114 l-22 30
-14 -31 c-14 -29 -16 -30 -39 -15 -22 14 -27 14 -63 -2 -22 -10 -37 -22 -34
-26 3 -5 -3 -12 -13 -15 -10 -3 -26 -10 -37 -16 -14 -7 -22 -6 -33 5 -19 19
-25 106 -9 132 7 11 16 33 20 48 6 26 3 29 -43 48 -35 15 -53 29 -61 50 -7 15
-23 35 -36 44 -14 9 -22 20 -20 24 7 11 -28 43 -37 35 -4 -4 -13 -1 -22 6 -10
8 -15 9 -15 1 0 -15 -27 -14 -32 1 -3 7 -43 11 -124 12 -89 1 -119 4 -118 14
1 6 2 28 3 47 1 26 5 33 16 29 8 -4 15 -2 15 4 0 6 10 8 23 5 16 -3 18 -2 8 5
-7 5 -30 8 -50 5 -36 -5 -36 -4 -37 31 -1 72 -65 93 -149 51z m121 -162 c-10
-10 -19 5 -10 18 6 11 8 11 12 0 2 -7 1 -15 -2 -18z"/>
<path d="M2750 5589 c0 -7 -11 -22 -25 -35 -26 -24 -26 -24 -6 -45 25 -27 61
-12 54 24 -3 14 2 29 11 36 23 19 20 31 -9 31 -14 0 -25 -5 -25 -11z"/>
<path d="M8918 5480 c-56 -10 -68 -16 -68 -36 0 -20 -49 -64 -71 -64 -11 0
-19 -4 -19 -10 0 -5 -10 -10 -22 -10 -21 -1 -21 -2 -5 -11 9 -5 17 -16 17 -22
0 -17 -53 -36 -84 -30 -31 6 -121 -38 -154 -76 -12 -14 -28 -33 -36 -41 -7 -8
-26 -34 -41 -57 -25 -39 -26 -45 -15 -75 18 -45 28 -54 42 -40 7 7 44 12 95
12 65 0 94 5 135 24 69 30 110 77 111 125 1 34 5 38 59 64 38 19 58 35 58 47
0 25 21 40 77 55 29 7 47 17 45 25 -2 8 5 11 23 8 18 -4 30 1 40 16 8 11 15
16 15 11 0 -5 5 -4 12 3 16 16 -7 42 -37 42 -27 0 -91 26 -100 40 -7 11 -10
11 -77 0z"/>
<path d="M4400 5298 c0 -7 -13 -26 -29 -43 -28 -28 -35 -54 -32 -112 2 -54 88
-87 111 -43 18 34 16 137 -4 158 -9 10 -16 26 -16 35 0 9 -7 17 -15 17 -8 0
-15 -5 -15 -12z"/>
<path d="M8400 5021 c0 -25 6 -27 13 -6 4 8 2 17 -3 20 -6 4 -10 -3 -10 -14z"/>
<path d="M4693 4979 c-18 -5 -33 -12 -33 -15 0 -20 43 -82 65 -92 67 -31 89
-4 54 66 -26 50 -37 56 -86 41z"/>
<path d="M4960 4784 c0 -8 5 -12 10 -9 6 3 10 10 10 16 0 5 -4 9 -10 9 -5 0
-10 -7 -10 -16z"/>
<path d="M2860 4441 c-33 -9 -37 -43 -11 -77 17 -22 20 -35 14 -85 -4 -41 -2
-59 6 -59 6 0 11 -7 11 -15 0 -8 4 -15 9 -15 17 0 86 32 93 44 19 29 0 166
-22 166 -5 0 -21 11 -36 25 -15 14 -30 25 -33 24 -3 -1 -17 -4 -31 -8z"/>
<path d="M7466 4165 c-7 -18 16 -30 40 -21 14 5 14 8 0 21 -19 19 -32 19 -40
0z"/>
<path d="M3106 4115 c-22 -13 -57 -27 -78 -30 -24 -4 -38 -12 -38 -22 0 -8 -9
-26 -19 -40 -28 -35 -36 -100 -17 -144 8 -20 12 -39 9 -43 -4 -3 3 -6 14 -6
11 0 23 3 27 8 4 4 29 7 56 8 49 1 160 46 160 65 0 5 16 15 35 23 45 19 51 36
32 93 -11 33 -13 51 -6 60 19 22 -4 38 -56 38 -27 1 -57 4 -65 8 -9 4 -32 -4
-54 -18z"/>
<path d="M7125 4103 c-182 -49 -275 -85 -275 -107 0 -14 56 -40 70 -31 4 3 13
-1 18 -8 16 -19 77 -20 111 -3 15 8 59 23 97 32 38 10 78 27 90 38 12 12 30
26 40 32 29 17 30 42 2 42 -13 0 -48 2 -78 5 -30 3 -64 3 -75 0z"/>
<path d="M3950 3960 c0 -5 5 -10 10 -10 6 0 10 5 10 10 0 6 -4 10 -10 10 -5 0
-10 -4 -10 -10z"/>
<path d="M3508 3755 c-4 -4 -20 -8 -35 -9 -57 -5 -108 -20 -120 -35 -7 -9 -13
-29 -13 -46 0 -25 -19 -75 -20 -52 0 4 -6 2 -14 -5 -18 -17 -9 -30 15 -23 24
8 25 -11 2 -24 -15 -8 -16 -12 -5 -22 6 -7 12 -20 12 -29 0 -21 56 -79 88 -91
35 -14 133 -1 157 21 23 21 154 100 164 100 4 0 26 9 49 20 22 11 45 20 50 20
8 0 9 12 3 55 -1 11 -36 50 -68 76 -35 28 -246 63 -265 44z"/>
<path d="M5413 3585 c-3 -9 -18 -22 -33 -30 -36 -19 -86 -72 -108 -115 -9 -19
-31 -44 -49 -55 -17 -11 -37 -29 -43 -40 -32 -58 -138 -88 -179 -51 -24 22
-72 16 -129 -16 -53 -29 -62 -38 -63 -62 0 -11 -3 -15 -6 -8 -7 17 -23 15 -23
-3 0 -9 -9 -28 -20 -43 -10 -15 -20 -40 -22 -57 -3 -26 3 -33 52 -62 52 -32
58 -33 163 -33 77 0 117 4 135 15 25 13 190 45 237 46 31 0 104 41 111 61 3
11 0 25 -6 33 -6 8 -9 24 -5 35 10 31 12 191 3 196 -12 7 -10 64 2 64 6 0 10
30 10 70 0 66 -12 91 -27 55z"/>
<path d="M6660 3540 c0 -33 -4 -60 -10 -60 -5 0 -10 -9 -10 -20 0 -11 -4 -20
-9 -20 -16 0 -2 -52 18 -67 18 -12 21 -23 19 -72 -1 -40 3 -63 12 -74 8 -9 21
-23 28 -32 9 -11 32 -15 80 -15 37 0 72 4 77 8 6 4 19 26 29 50 15 32 25 42
43 42 12 0 23 4 23 9 0 5 3 17 7 26 5 15 3 16 -14 7 -14 -8 -23 -8 -31 0 -15
15 -15 38 -1 38 5 0 7 5 4 10 -3 6 1 10 10 10 10 0 14 -5 9 -12 -5 -10 -4 -10
6 -1 19 17 6 26 -34 25 -27 -1 -36 3 -42 20 -12 39 -53 68 -87 61 -18 -3 -37
-12 -43 -19 -18 -23 -24 -16 -24 26 0 22 -4 40 -10 40 -5 0 -10 18 -10 40 0
33 -3 40 -20 40 -18 0 -20 -7 -20 -60z"/>
<path d="M6178 3373 c-10 -3 -15 -10 -11 -19 3 -9 -2 -14 -15 -14 -25 0 -53
-43 -63 -95 -8 -45 5 -72 27 -54 9 8 15 5 24 -11 17 -32 56 -23 53 13 -1 15 1
27 5 28 72 7 122 25 122 44 0 8 5 15 12 17 6 2 -6 22 -28 45 -38 39 -83 56
-126 46z"/>
<path d="M4527 3282 c-32 -3 -37 -6 -32 -23 3 -10 8 -28 11 -39 3 -11 12 -20
21 -20 8 0 17 -8 20 -18 7 -29 51 -16 69 20 32 62 4 88 -89 80z m60 -78 c-3
-3 -12 -4 -19 -1 -8 3 -5 6 6 6 11 1 17 -2 13 -5z"/>
<path d="M4320 3240 c0 -5 -9 -10 -20 -10 -10 0 -24 -9 -30 -19 -13 -25 -13
-91 0 -91 6 0 10 4 10 10 0 5 8 17 19 27 16 16 37 93 25 93 -2 0 -4 -4 -4 -10z"/>
<path d="M7940 2998 c-51 -14 -200 -127 -200 -150 0 -6 -27 -37 -60 -69 -33
-32 -60 -65 -60 -73 0 -48 -174 -226 -222 -226 -7 0 -40 -25 -73 -55 -33 -30
-76 -62 -95 -71 -49 -23 -76 -50 -116 -115 -41 -68 -43 -107 -10 -163 27 -46
102 -88 256 -146 47 -18 104 -39 126 -48 36 -14 48 -14 98 -2 63 15 81 30 73
61 -7 27 5 58 35 86 59 56 70 63 96 63 16 0 37 9 46 19 16 17 59 32 131 45 39
7 95 36 95 50 0 7 9 25 20 39 11 14 20 30 20 36 0 7 9 24 20 39 13 19 21 49
24 100 3 39 8 77 12 83 3 6 6 46 6 89 -1 42 2 90 7 106 4 16 4 61 0 100 -14
116 -45 171 -112 199 -41 17 -66 18 -117 3z"/>
<path d="M4414 2200 c-39 -4 -82 -11 -95 -15 -35 -10 -76 -60 -73 -87 1 -13 3
-33 3 -45 1 -12 17 -37 37 -55 20 -18 60 -54 88 -81 28 -26 60 -50 71 -53 18
-5 118 -54 221 -107 19 -9 34 -24 34 -32 0 -17 50 -40 130 -60 30 -7 93 -28
140 -46 58 -22 108 -34 157 -36 66 -4 72 -3 78 17 4 12 18 26 31 32 14 6 27
22 30 35 4 12 10 20 15 18 4 -3 15 7 23 22 8 15 28 41 45 56 17 16 31 34 31
41 0 7 13 33 30 57 16 24 30 52 30 62 0 10 7 28 15 41 21 32 9 85 -22 97 -13
5 -44 9 -69 9 -25 0 -61 7 -82 16 -20 9 -65 20 -100 25 -35 5 -78 17 -95 26
-24 12 -72 18 -202 23 -141 5 -179 10 -225 28 -58 23 -113 26 -246 12z"/>
</g>
</svg>
